<?xml version="1.0" encoding="utf-8"?>
<!-- Generator: Adobe Illustrator 27.3.1, SVG Export Plug-In . SVG Version: 6.00 Build 0)  -->
<svg version="1.1" id="Layer_1" xmlns="http://www.w3.org/2000/svg" xmlns:xlink="http://www.w3.org/1999/xlink" x="0px" y="0px"
	 viewBox="0 0 500 500" style="enable-background:new 0 0 500 500;" xml:space="preserve">
<style type="text/css">
	.st0{fill:#D9D9E1;}
	.st1{fill:#BEBFCA;}
	.st2{fill:#CBD7EE;}
	.st3{fill:#545A6D;stroke:#545A6D;stroke-width:11;stroke-miterlimit:10;}
	.st4{fill:#545A6D;}
</style>
<g>
	<path class="st0" d="M332.3,216.1c-51.6-0.1-93.2-43.9-93.1-98.2c0.1-53.2,42.5-97.3,93.5-97.2c51.3,0.1,93.9,44.7,93.7,98.1
		C426.3,172.7,384.2,216.2,332.3,216.1z"/>
	<path class="st1" d="M77.3,436.4c-10.1,0-19.9,0.4-29.7-0.2c-4.8-0.3-7.6-4.1-7.6-9c-0.1-23.5-0.9-47.1,0.2-70.6
		c1.8-38.2,35.1-69.2,73.4-69.3c22.5-0.1,45-0.1,67.5,0c5.1,0-3,1,3,1.6c-1.6,2.2-2.6,3.6-3.6,4.9c-14.7,19.5-22.9,41.3-23,65.8
		c-0.2,23.5-0.1,47.1-0.1,70.7c0,1.9,0,3.8,0,6.2c-25.1,0-36.2,0-61.2,0"/>
	<path class="st0" d="M256.6,269c-8,0-16.1,0-24.1,0.1c-42.9,0.2-80.3,34.9-82.3,77.7c-1.2,26.4-0.3,52.8-0.3,79.2
		c0,5.6,3.2,9.8,8.5,10.1c2.3,0.1,4.5,0.2,6.8,0.3c-7.9,0.1-15.6,0.2-23.3-0.3c-5.4-0.3-8.5-4.5-8.6-10.1c-0.1-26.4-1-52.9,0.3-79.2
		c2-42.8,39.4-77.5,82.3-77.7C229.6,269,243.1,269,256.6,269z"/>
	<path class="st0" d="M135.5,225.1c-28.9-0.1-52.2-27.7-52.1-62c0.1-33.6,23.8-61.4,52.4-61.3c28.7,0,52.6,28.2,52.5,61.9
		C188.1,197.7,164.5,225.2,135.5,225.1z"/>
	<path class="st2" d="M190.7,161.5c0.2,33.3-26.3,60.3-59.4,60.5c-2.6,0-5.1-0.1-7.6-0.4c29.9-3.5,52.8-29.1,52.7-60.1
		c-0.2-30.7-23.2-55.8-52.8-59.3c2.3-0.3,4.5-0.4,6.9-0.4C163.6,101.7,190.5,128.3,190.7,161.5z"/>
	<path class="st1" d="M403.4,117.8c0.3,52.8-41.7,95.6-94.1,95.9c-4.1,0-8.1-0.2-12-0.7c47.3-5.6,83.7-46.1,83.5-95.2
		c-0.3-48.6-36.7-88.4-83.7-94c3.6-0.4,7.2-0.7,10.9-0.7C360.5,22.9,403.2,65.2,403.4,117.8z"/>
	<path class="st3" d="M149.2,449.1c-2.6,0-4.5,0-6.4,0c-36.2,0-72.5,0-108.7,0C16.2,449,5,437.9,5,420.2c0-19.5,0-39,0-58.6
		c0-51.4,36.3-90.2,87.7-92.4c24.6-1,49.2-0.1,73.8,0.5c6.5,0.2,13,2.7,19.5,3.8c2.1,0.3,4.9,0,6.5-1.2c19.2-14,40.7-21.1,64.4-21.5
		c17.2-0.3,34.5-0.1,51.7,0c0.9,0,1.8,0,2.6,0.1c5.4,0.7,9.1,4.5,8.9,9.3c-0.2,4.9-3.9,8.5-9.5,8.6c-15.3,0.1-30.6-0.4-45.9,0.2
		c-11,0.5-22.3,1-32.8,3.9c-37.3,10.1-63.8,44-64.6,82.5c-0.7,33.8-0.3,67.5-0.2,101.3c0,7.4,3.2,10.3,10.8,10.4
		c10.2,0,20.4,0,30.6,0c9.7,0,12.6-2.8,12.6-12.5c0-33.4,0-66.8,0-100.3c0-1.8-0.1-3.5,0.1-5.3c0.4-4.1,2.8-6.8,6.8-7.6
		c4.4-0.8,8.2,0.6,9.9,4.9c0.9,2.2,1.1,4.8,1.1,7.2c0.1,33.9,0.1,67.9,0,101.8c0,18.6-11,29.6-29.4,29.6c-10.9,0-21.8,0.1-32.7,0
		c-16.4-0.1-27.4-10.8-28-27.2C149.1,455,149.2,452.3,149.2,449.1z M149.1,431c0-2.4,0-4.3,0-6.2c0-21.1,0.1-42.2,0-63.3
		c-0.2-25.7,7.3-48.7,23.1-69c0.8-1,1.4-2.2,2.3-3.7c-3.6-0.5-6.5-1.2-9.5-1.2c-23.7-0.2-47.5-1.1-71.2-0.3
		c-37.6,1.2-65.7,25.8-69.7,63.2c-2.6,24-1.1,48.4-0.7,72.7c0,2.6,4.1,7.2,6.7,7.4c9.5,0.9,19.1,0.4,28.9,0.4c0-2.5,0-4.5,0-6.4
		c0-20.4,0-40.8,0-61.2c0-1.6-0.1-3.2,0.1-4.7c0.6-5,4.6-8.6,9.1-8.6c4.9,0.1,8.7,3.9,8.7,9.3c0.1,22,0.1,44,0.1,65.9
		c0,1.9,0,3.7,0,5.7C101.2,431,124.8,431,149.1,431z"/>
	<path class="st3" d="M324.7,221.9c-57.4,0-103.4-46-103.4-103.4c0-57.3,46.2-103.6,103.4-103.5c57.2,0,103.5,46.4,103.5,103.5
		C428.2,175.8,382.1,221.9,324.7,221.9z M324.8,203.9c47.2,0,85.5-38.2,85.5-85.4c0-47.1-38.3-85.6-85.4-85.7
		c-47.4-0.1-85.7,38.3-85.7,85.8C239.3,165.9,277.4,204,324.8,203.9z"/>
	<path class="st3" d="M127.8,240c-58-0.1-95-59.5-69.9-110c0.9-1.7,1.8-3.4,2.8-5.1c3.4-5.5,8.1-7,12.8-4.4
		c4.6,2.6,5.4,7.7,2.8,13.3c-2.8,6.2-5.8,12.5-7.2,19.1c-7.3,34.5,20.1,68.3,55.4,68.9c33.4,0.6,59.8-24.5,60.5-57.8
		c0.8-36.7-34.5-65.8-70.3-57.9c-7.2,1.6-11,0.3-13.1-4.4c-2.6-5.7,0.6-11.3,7.6-12.9c22.1-4.9,42.6-1,61.2,11.9
		c26,18.2,37.9,50.1,30.5,80.7c-7.4,30.6-33,53.5-64.6,57.9C133.1,240,129.7,239.9,127.8,240z"/>
	<g>
		<path class="st4" d="M321.5,327.8c9-4.8,17.5-9.4,26.1-13.9c16.6-8.8,33.1-17.6,49.7-26.5c3.8-2.1,7.4-2.1,11.3-0.1
			c24.9,13.1,49.9,26.1,74.8,39.2c0.5,0.3,1,0.6,1.9,1.1c-1.1,0.7-2.1,1.3-3,1.8c-25.3,13.6-50.7,27.1-76,40.8c-1.9,1-3.3,1.1-5.4,0
			c-25.3-13.6-50.7-27.1-76.1-40.6C323.8,329.1,322.9,328.6,321.5,327.8z"/>
		<path class="st4" d="M412.9,473.3c0-1.4,0-2.6,0-3.7c0-26.7,0-53.4,0-80.1c0-1.6,0.1-2.8,1.9-3.8c26.2-13.9,52.3-28,78.5-42
			c0.4-0.2,0.8-0.3,1.4-0.6c0.1,0.8,0.2,1.5,0.2,2.2c0,26.2,0,52.4,0,78.6c0,3.7-1.4,6.6-4.9,8.5c-25.3,13.5-50.5,27-75.8,40.4
			C414,473,413.7,473,412.9,473.3z"/>
		<path class="st4" d="M312.1,343.2c1.2,0.6,2.1,1,3,1.5c25.4,13.5,50.7,27,76.1,40.5c1.6,0.8,2.8,1.5,2.8,3.7
			c-0.1,27.6-0.1,55.1-0.1,82.7c0,0.5-0.1,0.9-0.1,1.7c-1-0.5-1.8-0.8-2.6-1.2c-24.5-13-48.9-26.1-73.4-39.1c-3.8-2-5.9-4.9-5.9-8.9
			c0-26.5,0-53,0-79.5C311.9,344.3,312,344,312.1,343.2z"/>
	</g>
</g>
</svg>
