<?xml version="1.0" encoding="utf-8"?>
<!-- Generator: Adobe Illustrator 27.3.1, SVG Export Plug-In . SVG Version: 6.00 Build 0)  -->
<svg version="1.1" id="Layer_1" xmlns="http://www.w3.org/2000/svg" xmlns:xlink="http://www.w3.org/1999/xlink" x="0px" y="0px"
	 viewBox="0 0 500 500" style="enable-background:new 0 0 500 500;" xml:space="preserve">
<style type="text/css">
	.st0{fill:#545A6D;}
	.st1{fill:#D9D9E1;}
	.st2{fill:#BEBFCA;}
</style>
<path class="st0" d="M419.7,117.6c-11.9,0-19.9-7.6-19.8-18.9c0-11.1,8-18.6,19.6-18.7c11.8,0,19.9,7.7,19.8,18.9
	C439.2,110,431.3,117.6,419.7,117.6z"/>
<path class="st0" d="M522.2,150.4c0-18.6,0-36.1,0-51.9c0-6.3-0.5-11.4-1.4-16C512.4,41.1,475.1,11,432.2,11
	c-112.5-0.1-307.4,0-371.5,0c-13.3,0-24.7,2.5-34.9,7.6c-31.3,15.8-47.9,43-48,78.6c-0.4,103.6-0.2,200.2,0,302.5
	c0,7.5,1,15.4,3,23.5c8.1,33.1,37.6,59.4,68.5,61.3c13.7,0.8,50.1,1,82.4,1c8.6,0,17,0,24.5,0c10.7,0,20,0,25.4,0c0,0,0.1,0,0.1,0
	c7.1,0,13.3-3,17.4-8.3c5.2-6.7,6.1-14.6,2.6-22.1c-3.7-7.9-10.5-12.3-19.2-12.4c-12-0.1-50.4-0.1-81.3-0.1c-17.2,0-32,0-38.7,0
	c-8.1,0-14.2-1.4-19.4-4.3c-15-8.5-22.2-21.7-22.2-40.4c0-54.4,0-101,0-151l0-60.9h453v0.1c0,4.9,0,10.3,0.1,16
	c0.1,13.5,0.2,28.9-0.2,40.9c-0.2,6.9,2.1,13.1,6.5,17.8c4.5,4.7,10.9,7.5,17.5,7.7c6.4,0.1,12.9-2.5,17.6-7.1
	c4.8-4.7,7.2-11,7.2-18.3C522.2,215.6,522.2,182.5,522.2,150.4z M473.7,133.3c0,3.2,0,6.3,0,9.2H21.1c0-2.2,0-4.6,0-7
	c0-14.8,0-31.7,0.1-43.5c0-2,0.6-4.4,1.1-6.6C27,66.3,42.8,54,62.3,54c99.2,0,264.2,0,368.4,0c24.4,0,42.4,17.6,42.9,41.9
	C473.8,105.9,473.7,120.4,473.7,133.3z"/>
<path class="st0" d="M511.7,354.3c-15.7-36.2-43.6-66.5-78.5-85.5c-35-19-75.7-25.8-114.4-19c-62.3,10.8-107.4,46.6-134.2,106.5
	c-1,2.3-1.1,5.6-0.2,7.7c1.2,2.7,2.3,5.4,3.4,8.1c3.7,9,7.6,18.3,12.5,26.9c33,56.9,81.3,84.9,147.7,85.6l0.1,0l0.1,0
	c1.8-0.2,4.3-0.4,7.1-0.6c6.6-0.5,14.9-1,22.2-2.2c33.6-5.5,62.1-18.3,84.6-38c21.9-19.2,38.8-45.4,50.2-78
	C513.6,361.9,513.4,358.3,511.7,354.3z M477,369.9c-23.1,45.1-59.4,71.4-107.9,78.3c-59.7,8.5-119.9-23.2-146.4-77.1
	c-2-4-1.9-7.1,0.1-11c22.6-42.9,60.4-69.5,109.4-77.1c4.1-0.6,8.3-0.9,12.8-1.3c2.2-0.2,4.4-0.3,6.8-0.5
	c57.3,3.1,99.4,30.2,125.3,80.4C478.6,364.5,478.5,366.8,477,369.9z"/>
<path class="st1" d="M479.1,148c-133.6,0-330.5,0-463.6,0c0-15.9-0.1-40.5,0.1-56.1c0-2.6,0.7-5.3,1.3-7.8
	c5.3-21.4,23.4-35.6,45.4-35.6c101.5,0,266.9,0,368.4,0c27.2,0,47.9,20.2,48.4,47.2C479.4,110,479.1,133.3,479.1,148z M304,118
	c11.4,0,20.1-8.3,19.8-19c-0.3-8.5-6.7-19.2-19.7-18.7c-11.6,0.4-20,8-20,18.9C284,110.1,292.5,118,304,118z M363.6,80.4
	c-12,0-19.9,7.5-19.9,18.9c0,11.2,7.9,18.7,19.5,18.7c12,0,19.9-7.5,19.9-18.9C383.1,88,375.2,80.5,363.6,80.4z M419.7,118
	c11.6,0,19.5-7.6,19.6-18.7c0.1-11.2-8-18.9-19.8-18.9c-11.6,0-19.5,7.6-19.6,18.7C399.9,110.4,407.8,118,419.7,118z"/>
<path class="st2" d="M349.7,280.2c56.6,3.1,101.6,29.1,128.3,80.9c1.7,3.3,1.6,5.9-0.1,9.2C455,415,419,442.1,369.2,449.2
	c-60,8.5-120.7-23.3-147.5-77.6c-2.1-4.3-2.1-7.7,0.1-11.9c23.1-43.9,58.9-70.1,108-77.6C336.1,281.1,342.4,280.9,349.7,280.2z
	 M350.6,414.1c34.4,0.7,48.6-13.4,49.2-48.5c-6.7-31.1-11.2-49.1-46.2-50c-34.2,3.2-51.6,14.6-52.4,49.7
	C300.4,399.8,315.5,413.4,350.6,414.1z"/>
<path class="st0" d="M304,118c-11.6,0-20-7.9-20-18.8c0-10.9,8.5-18.4,20-18.9c13-0.5,19.5,10.2,19.7,18.7
	C324.2,109.7,315.4,118,304,118z"/>
<path class="st0" d="M363.6,80.4c11.6,0,19.5,7.6,19.5,18.7c0,11.4-7.9,18.9-19.9,18.9c-11.6,0-19.5-7.6-19.5-18.7
	C343.7,87.9,351.7,80.4,363.6,80.4z"/>
<path class="st0" d="M350.1,420.9c-30.6-0.6-55.4-26-54.7-55.9c0.7-30.6,26.1-55.3,56-54.6c30.5,0.8,55,25.8,54.5,55.7
	C405.4,396.6,380.1,421.5,350.1,420.9z M350.7,392.4c14.7-0.1,26.9-12.3,26.7-26.9c-0.2-14.6-12-26.4-26.6-26.5
	c-14.6-0.1-26.8,12-26.9,26.7C323.9,380.3,336.1,392.4,350.7,392.4z"/>
<path class="st1" d="M350.7,392.4c-14.7,0.1-26.8-12.1-26.8-26.7c0-14.7,12.3-26.8,26.9-26.7c14.6,0.1,26.4,12,26.6,26.5
	C377.6,380.1,365.4,392.3,350.7,392.4z"/>
</svg>
