<?xml version="1.0" encoding="utf-8"?>
<!-- Generator: Adobe Illustrator 27.3.1, SVG Export Plug-In . SVG Version: 6.00 Build 0)  -->
<svg version="1.1" id="Layer_1" xmlns="http://www.w3.org/2000/svg" xmlns:xlink="http://www.w3.org/1999/xlink" x="0px" y="0px"
	 viewBox="0 0 500 500" style="enable-background:new 0 0 500 500;" xml:space="preserve">
<style type="text/css">
	.st0{fill:#D9D9E1;}
	.st1{fill:#BEBFCA;}
	.st2{fill:#545A6D;}
	.st3{fill:#FFFFFF;}
</style>
<circle class="st0" cx="250.4" cy="254.6" r="192.5"/>
<path class="st1" d="M459.5,247.7C460,351.3,376,435.2,271.2,435.8c-8.2,0-16.1-0.4-24-1.3c94.7-11,167.5-90.3,167-186.8
	c-0.5-95.3-73.5-173.4-167.4-184.3c7.2-0.9,14.4-1.3,21.8-1.3C373.6,61.7,459,144.6,459.5,247.7z"/>
<path class="st2" d="M267,470c0,5.8,0,11.2,0,16.7c-0.1,10.3-7.2,18-16.8,18c-9.6,0.1-17-7.6-17.1-17.8c0-5.5,0-10.9,0-15.7
	C115.5,452.4,47.7,384.9,28.6,266.9c-1.6,0-4.4,0-7.2,0c-18.3,0-26.3-5.2-26.3-17.1c0.1-11.8,8.1-16.8,26.5-16.8c2.6,0,5.2,0,8.1,0
	c5.2-54.8,26.8-101.6,65.7-140.2C121,67.4,151,49.5,185.6,38.8c6.1,10.1,11.9,19.9,17.8,29.6C122.6,94.2,76.2,148.6,63.3,232.9
	c6.2,0,11.1,0,16.1,0c10.2,0.1,17.8,7.5,17.7,17.1c-0.1,9.4-7.6,16.7-17.5,16.8c-4.9,0.1-9.9,0-14.8,0
	c3.7,79.8,73.9,161.4,168.3,168.7c0-2.3,0-4.5,0-6.8c0-17.9,5.2-25.9,16.8-26c11.9-0.1,17.1,7.9,17.1,26.3c0,2.1,0,4.2,0,6.3
	c86.3-5.2,162.9-80.5,168.5-168.5c-4.9,0-9.8,0-14.8,0c-10.2-0.1-17.9-7.4-17.8-17.1c0-9.6,7.7-16.8,18-16.9c4.8,0,9.5,0,14.3,0
	c-1.2-52.5-42.8-138.3-138.8-164.2c5.9-9.9,11.8-19.7,17.6-29.4c62.1,15.8,145.7,81.5,156.3,193.6c5.5,0,11.2,0,16.8,0
	c10.2,0.1,17.8,7.5,17.7,17.1c-0.1,9.4-7.6,16.7-17.5,16.8c-5.6,0.1-11.3,0-17.1,0c-5.1,54.1-26,100.5-64.1,138.7
	C367.8,443.8,321.5,464.8,267,470z"/>
<path class="st3" d="M250,505.7c-10.2,0-17.9-8-18-18.8c0-3.8,0-7.6,0-11.2c0-1.2,0-2.4,0-3.6c-58.3-9.5-105-31.4-138.8-65.1
	c-33.8-33.8-55.8-80.6-65.4-139.1h-6.3c-11.5,0-18.8-2-23.1-6.2c-2.9-2.9-4.2-6.8-4.2-11.9c0.1-12.3,8.6-17.8,27.5-17.8h7.2
	C34.4,177.1,56.5,130.1,94.8,92c25.3-25.2,55.8-43.4,90.5-54.2l0.7-0.2l18.8,31.3l-1.2,0.4C123.2,95,77.6,148.2,64.5,231.9
	c1.6,0,3.1,0,4.6,0c3.7,0,7,0,10.3,0c10.8,0.1,18.8,7.9,18.7,18.2c-0.1,10-8.1,17.6-18.5,17.8c-3.4,0-6.9,0-10.2,0
	c-1.2,0-2.4,0-3.6,0c4,74.2,68.3,158.5,166.2,166.6v-5.7c0-18.6,5.5-26.9,17.8-27c5.1,0,9,1.3,11.9,4.2c4.3,4.2,6.2,11.6,6.2,23v5.2
	c86-5.7,160.4-80,166.4-166.4c-1.2,0-2.3,0-3.5,0c-3.4,0-6.8,0-10.2,0c-10.8-0.1-18.9-7.9-18.8-18.1c0-10.1,8.2-17.8,19-17.9
	c3.3,0,6.5,0,9.8,0l3.4,0c-1.7-49.2-40.3-135.8-138-162.2l-1.3-0.3l18.7-31.2l0.7,0.2c34.5,8.8,70.3,31,98,61
	c33.7,36.4,54,82.2,58.9,132.6c1.4,0,2.8,0,4.3,0c3.8,0,7.7,0,11.6,0c10.8,0.1,18.8,7.9,18.7,18.1c-0.1,10-8.1,17.7-18.5,17.8
	c-3.9,0-7.7,0-11.7,0c-1.5,0-3,0-4.5,0c-5.3,54.4-26.9,101-64.3,138.4c-37.4,37.5-84.1,59.2-138.7,64.6l0,4.5c0,3.8,0,7.6,0,11.3
	c-0.1,10.8-7.7,18.9-17.8,19C250.1,505.7,250,505.7,250,505.7z M21.8,233.9c-17.8,0-25.5,4.7-25.5,15.8c0,4.5,1.2,7.9,3.6,10.4
	c3.8,3.8,10.9,5.7,21.6,5.7h8l0.1,0.8c19.1,118.1,85.7,184.7,203.6,203.5l0.8,0.1v0.9c0,1.4,0,2.9,0,4.5c0,3.6,0,7.4,0,11.2
	c0.1,9.6,6.9,16.8,16,16.8c0,0,0.1,0,0.1,0c9.1-0.1,15.8-7.2,15.9-17c0-3.7,0-7.5,0-11.3l0-6.3l0.9-0.1
	c54.5-5.2,101.1-26.7,138.4-64.1c37.2-37.3,58.7-83.8,63.8-138.1l0.1-0.9h0.9c1.8,0,3.7,0,5.4,0c4,0,7.8,0,11.7,0
	c9.4-0.1,16.5-6.9,16.5-15.8c0.1-9.1-7.1-16-16.7-16.1c-3.9,0-7.8,0-11.6,0c-1.7,0-3.5,0-5.2,0h-0.9l-0.1-0.9
	C458.5,118.4,371.1,55.2,314.5,40.5l-16.6,27.7c53.8,14.9,86.3,47.4,104.2,72.1c20.6,28.6,33.4,63.2,34.1,92.6l0,1l-5.5,0
	c-3.3,0-6.5,0-9.8,0c-9.8,0.1-17,6.8-17,15.9c0,9.1,7.2,16,16.8,16c3.4,0,6.8,0,10.2,0c1.5,0,3.1,0,4.6,0h1.1l-0.1,1.1
	c-2.7,42.6-22,83.8-54.3,115.9c-32.1,32-73,50.9-115.2,53.5l-1.1,0.1V429c0-10.8-1.9-17.9-5.7-21.6c-2.5-2.4-5.8-3.6-10.3-3.6
	c-0.1,0-0.1,0-0.2,0c-11.1,0.1-15.8,7.6-15.8,25v7.8l-1.1-0.1c-44.6-3.4-86.8-23.8-118.8-57.5c-30.2-31.7-48.6-72.6-50.4-112.2l0-1
	h1c1.5,0,3.1,0,4.6,0c3.3,0,6.8,0,10.2,0c9.4-0.1,16.5-6.9,16.6-15.8c0.1-9.1-7.1-16-16.7-16.1c-3.3,0-6.6,0-10.3,0
	c-1.8,0-3.7,0-5.7,0h-1.2l0.2-1.2c6.5-42.1,21.5-77.4,44.8-104.7c23-27.1,54.9-47.3,94.8-60.3L185.2,40
	c-34.1,10.7-64.1,28.7-89,53.4C58.1,131.3,36.1,178.3,30.8,233l-0.1,0.9H21.8z"/>
<path class="st2" d="M250,80c-17.2-28.7-33.9-56.4-50.8-84.7c34.2,0,67.4,0,101.6,0C283.8,23.6,267.2,51.3,250,80z"/>
<path class="st2" d="M301.1,203.8c0,28.2-23,51.1-51.4,51.1c-28,0-50.9-23.1-50.9-51.2c0-28.2,23-51.1,51.4-51.1
	C278.2,152.7,301.1,175.7,301.1,203.8z"/>
<path class="st2" d="M250,340.3c-16.6,0-33.3,0-49.9,0c-8.9,0-14-5.3-14-14.2c0.1-30.4,24.7-57.6,54.7-61.8
	c33.4-4.7,65.4,17.5,71.9,51c0.8,3.9,1.2,7.9,1.3,11.9c0.3,7.6-5.2,13.2-12.9,13.2C284,340.4,267,340.3,250,340.3z"/>
</svg>
