<?xml version="1.0" encoding="utf-8"?>
<!-- Generator: Adobe Illustrator 27.3.1, SVG Export Plug-In . SVG Version: 6.00 Build 0)  -->
<svg version="1.1" id="Layer_1" xmlns="http://www.w3.org/2000/svg" xmlns:xlink="http://www.w3.org/1999/xlink" x="0px" y="0px"
	 viewBox="0 0 500 500" style="enable-background:new 0 0 500 500;" xml:space="preserve">
<style type="text/css">
	.st0{fill:#D9D9E1;}
	.st1{fill:#545A6D;}
	.st2{fill:#97989C;}
</style>
<path class="st0" d="M483.3,84v231.7c0,24.4-24,24.9-24,24.9H219.9c13.6-18.6,21.7-41.5,21.7-66.4c0-62.1-50.3-112.4-112.4-112.4
	c-10.3,0-20.3,1.4-29.8,4V61.9c5.9-15.7,34.7-13.4,34.7-13.4h268.2C501.8,48.6,483.3,84,483.3,84z"/>
<path class="st1" d="M296.3,355.1c-9.2-5.4-18.5-10.8-27.2-15.9c-3.5-2-7-4.1-10.5-6.1l-3.6-2.1c-2.9-1.7-5.9-3.5-8.9-5.2l-2.1-1.2
	l0.8-1.7c14.3-31.4,16.3-63.4,5.6-95.2c-1.9-5.9-6.7-8.6-12.2-6.9c-3.5,1.1-5.1,3.1-5.9,4.5c-1.2,2.3-1.2,5.1-0.2,8.3
	c6.4,19.3,7.1,39.5,2.2,60.2c-6.6,27.5-23.7,50.9-48.5,65.8c-24.7,14.9-53.3,19.3-80.7,12.3c-24.9-6.4-47.7-22.7-62.6-44.6
	c-16.2-24-21.7-53.1-15.6-82.1c9.9-46.2,54.4-82.8,101.4-83.4c13.3-0.2,25.7,1.8,38,6c9.3,3.2,12.6-3.1,13.3-5.1
	c1.4-3.4,0.8-6,0.1-7.6c-0.8-1.8-2.7-4.2-7-5.8c-19.9-7.1-40.6-8.9-61.6-5.4C49.9,154.4-6,211.7,6.7,289.7
	c5.5,33.7,26.5,65.4,56.3,84.9c29.4,19.3,64.8,25,99.4,16c6.4-1.6,12.4-3.9,18.7-6.3c2.2-0.8,4.3-1.6,6.5-2.4
	c0.2,0.4,0.5,0.7,0.7,1.1c2.7,4.7,5.5,9.4,8.2,14l1.3,2.2c6.4,10.9,13,22.4,19.4,33.5c9.6,16.8,24.7,26.4,44.9,28.4
	c1.8,0.2,3.6,0.3,5.4,0.3c23.9,0,46.4-15.9,53.7-38.7C329.6,396.9,319.1,368.5,296.3,355.1z M233.9,341.5c0.3,0.2,0.6,0.3,0.9,0.5
	l8.6,5c13.1,7.6,27.9,16.2,42.3,24.7c13.7,8,21,23.5,18.3,38.6c-2.9,15.8-14.4,28.1-28.6,30.7c-2.9,0.5-5.7,0.8-8.4,0.8
	c-14,0-25.7-6.6-32.7-18.7c-6.5-11.1-13.3-22.8-22.1-38l-8-13.7C216,362.9,225.8,353,233.9,341.5z"/>
<circle class="st2" cx="134.6" cy="272" r="47.9"/>
<path class="st0" d="M223.2,152c8.2-0.1,15.1,6.9,15.1,15.3c0,7.8-6.9,14.6-14.7,14.6c-8.3,0-15.2-6.5-15.3-14.6
	C208,159.1,214.8,152.2,223.2,152z"/>
<path class="st1" d="M495,83.9c-0.1-24.1-21.4-45.3-45.7-45.3c-82.7-0.1-212.3-0.1-315.1,0c-22,0-42.1,17.3-44.8,38.5
	c-1.2,8.7-1.1,17.7-1.1,26.3c0,3.2,0,6.7,0,10c-0.1,3.8,0.9,6.7,2.9,8.7c1.2,1.2,3.5,2.8,7.2,2.8l0,0c3,0.1,5.5-0.8,7.2-2.5
	c2-2,3.1-4.9,3.1-8.8c0-4.1,0-8.1,0-12.2v-3c0-3.5,0-7.2,0-10.7c0-17.3,11.3-28.6,28.8-28.6c32.2,0,64.4,0,96.6,0h38h39.6h133.5
	c18.4,0,29.4,10.9,29.4,29.3c0,72.3,0,144.6,0,216.9c0,18.3-11,29.3-29.5,29.3c-9.9,0-19.9,0-29.9,0h-12.3c-9.5,0-19,0-28.5,0
	c-6.7,0-11,4-11,10.2c0,3.9,1.7,6.3,3.2,7.6c1.9,1.7,4.6,2.6,7.8,2.6c6.2,0,12.3,0,18.6,0.1c8.1,0,16.3,0.1,24.7,0.1
	c10.7,0,21.5-0.1,32.2-0.2c24.1-0.4,45.2-21.5,45.2-45.3C495.2,234.4,495.2,158.5,495,83.9z"/>
<path class="st1" d="M439.2,285.6c-1.3-1.3-3.8-2.9-8.2-2.9c-7.7,0-15.4,0-23,0h-28.1c-4.6,0-9.3,0-13.9,0c-4.5,0-6.9,1.6-8.2,2.9
	c-1.2,1.2-2.5,3.2-2.5,6.4c0.1,5.6,4.2,9.2,10.4,9.2c10.6,0,21.4,0,32.4,0c10.9,0,22,0,33,0c6.3,0,10.3-3.5,10.4-9.1
	C441.6,288.8,440.3,286.8,439.2,285.6z"/>
<path class="st0" d="M318.9,230.8c0,4.5-3.5,8.1-7.9,8.2s-8.1-3.4-8.2-7.9c-0.2-4.6,3.5-8.5,8.2-8.4
	C315.4,222.8,318.8,226.3,318.9,230.8z"/>
<path class="st1" d="M193,271c-0.1-0.8-0.2-1.7-0.2-2.5c-0.2-1.9-0.3-4-0.6-6c-1.4-8.7-4.7-16.8-9.9-24.1c-2.3-3.2-5.8-4.2-8.9-2.7
	c-1.9,1-4.2,3.2-4.9,5.7c-0.6,2.4,0.6,4.7,1.9,6.7c6.5,10.1,8.6,20.7,6.4,31.7c-4.9,24.1-26.9,38.8-51.1,34.1
	c-10.7-2.1-20.5-8.7-26.8-18.3c-6.3-9.5-8.7-21-6.5-31.5c2.8-13.3,11.6-24.7,23.4-30.8c11.3-5.8,24.4-5.9,36.8-0.5
	c4.9,2.2,9.1,0.8,11-3.5c1.9-4.3,0.2-8.2-4.7-10.5c-7.8-3.5-15.8-5.3-24-5.3c-3.2,0-6.5,0.3-9.6,0.8c-16.3,2.8-30.1,11.6-39.1,25
	S74.3,269,78,285.2c3.5,15.1,12.6,27.9,25.8,36.2c9.4,5.9,20,8.9,30.7,8.9c4.3,0,8.6-0.5,12.9-1.5c26.3-6.1,45.5-30.2,45.7-57.4
	v-0.2L193,271z"/>
<path class="st1" d="M432.2,112c-0.1-6.4-4.5-10.9-10.9-10.9h-1.1c-15.3-0.1-31.1-0.2-46.6,0.2c-3.3,0.1-7.6,3.2-9,6.4
	c-1.3,3.1-0.6,8,1.5,10.8c2,2.6,6.4,3.7,9.5,3.8c6.6,0.2,13.3,0.2,19.3,0.2c0.6,0,1.2,0,1.9,0l-4.2,4.6
	c-23.7,25.5-48.3,52-72.6,77.8c-0.4,0.3-1.7,0.5-2.4,0.3c-6.7-1.8-13.1-1.1-18.8,1.9c-1.4,0.8-1.7,0.7-3.2-0.4l-0.7-0.5
	c-10.3-7.6-23-17-35.5-25.7c-2.9-2.1-3.6-3.1-2.7-6.6c3.5-12.9-2.9-28-15.3-35.9c-5.5-3.5-11.9-5.4-18.5-5.4
	c-7.2,0-14.1,2.2-19.5,6.3c-14.6,11-18.3,29.1-9.6,46.3l-10.6,12.5c-10.3,12.2-20.6,24.3-30.8,36.4l-1.7,2c-1.9,2.2-3.7,4.4-5.6,6.6
	l-3.4,4c-4.5,5.3-9,10.6-13.5,16c-5.3,6.3-3.1,10.9-1.3,13c1.9,2.5,5.6,5,9.1,5h0.2h0.1c4.5-0.2,8.4-4.5,9.2-5.4
	c18.2-21.2,37.8-44.3,63.5-74.9c1.2-1.5,1.4-1.4,2.6-0.9c10.3,3.9,20.4,2.7,30.3-3.6c1.4-0.9,1.5-0.8,2.5-0.1
	c5.5,4.1,11.1,8.2,16.6,12.1l0.5,0.3c7.2,5.2,14.6,10.6,21.7,16c0.5,0.4,0.9,1.9,0.8,2.5c-1.4,10.5,3.8,21.3,13,26.7
	c9.2,5.6,20.9,4.9,29.2-1.5c9.3-7.2,13.1-18.9,9.6-29.1c-0.8-2.2-0.6-3.2,1.1-4.9c17.7-18.9,36.2-38.6,52.3-56
	c3.7-4,7.4-7.9,11.2-11.9c3.5-3.8,7.1-7.6,10.6-11.3v7.3c0,1.2,0,2.4,0,3.6v0.2c0,3-0.1,6,0.1,9.1c0.2,6.5,4.8,10.9,10.9,10.8
	c6-0.2,10.3-4.6,10.3-10.8C432.3,142.2,432.3,126.7,432.2,112z M310.7,236h-0.2c-2.8,0-5-2.2-5.1-5c-0.1-1.5,0.5-2.8,1.5-3.8
	c1-1,2.2-1.5,3.6-1.5h0.1c2.9,0.1,5,2.2,5,5.2l0,0C315.6,233.7,313.4,235.9,310.7,236z M223.6,184.6l-0.1-4.2
	c-7.2,0-13.3-5.7-13.4-12.7c-0.1-3.5,1.2-6.9,3.7-9.4c2.5-2.5,5.8-4,9.3-4h0.2c3.3,0,6.6,1.3,9,3.8c2.5,2.5,4,6,4,9.6
	c0,6.6-6.1,12.7-12.8,12.8L223.6,184.6z"/>
</svg>
