<?xml version="1.0" encoding="utf-8"?>
<!-- Generator: Adobe Illustrator 27.3.1, SVG Export Plug-In . SVG Version: 6.00 Build 0)  -->
<svg version="1.1" id="Layer_1" xmlns="http://www.w3.org/2000/svg" xmlns:xlink="http://www.w3.org/1999/xlink" x="0px" y="0px"
	 viewBox="0 0 500 500" style="enable-background:new 0 0 500 500;" xml:space="preserve">
<style type="text/css">
	.st0{fill:#D9D9E1;}
	.st1{fill:#BEBFCA;}
	.st2{fill:#CBD7EE;}
	.st3{fill:#545A6D;stroke:#545A6D;stroke-width:11;stroke-miterlimit:10;}
</style>
<g>
	<path class="st0" d="M277.2,188.3c-42.8-0.1-77.2-36.4-77.1-81.3c0.1-44.1,35.2-80.6,77.5-80.5c42.5,0.1,77.8,37,77.6,81.3
		C355,152.3,320.1,188.3,277.2,188.3z"/>
	<polygon class="st1" points="307.5,362.5 339.3,402.2 273.5,455.7 229.3,470.1 225.6,441.4 	"/>
	<path class="st1" d="M318.4,230.1h-7.1c-35.7,27.5-49.8,77.7-28.1,122.1c1.3,2.7,0.8,4-1.1,6c-8.3,8.1-16.4,16.3-24.6,24.5
		c-5.1,5.1-10.2,10.1-15.2,15.2l13,0.8c4.5-4.5,9.1-9.1,13.6-13.6c8.7-8.7,17.2-17.4,26-25.9c2.1-2,2.6-3.5,1.2-6.3
		C274.7,309.2,286.2,260.2,318.4,230.1z"/>
	<path class="st1" d="M66,370.7c-8.4,0-16.5,0.3-24.6-0.1c-4-0.2-6.3-3.4-6.3-7.5c0-19.5-0.7-39,0.2-58.5
		c1.5-31.6,29.1-57.3,60.8-57.4c18.6-0.1,37.3-0.1,55.9,0c4.2,0-2.5,0.8,2.5,1.3c-1.3,1.9-2.1,3-2.9,4.1
		c-12.2,16.1-18.9,34.2-19.1,54.5c-0.2,19.5-0.1,39-0.1,58.5c0,1.6,0,3.1,0,5.2c-20.8,0-30,0-50.7,0"/>
	<path class="st0" d="M214.5,232.1c-6.7,0-13.3,0-20,0.1c-35.5,0.2-66.5,28.9-68.1,64.4c-1,21.8-0.3,43.7-0.2,65.6
		c0,4.6,2.6,8.1,7.1,8.4c1.9,0.1,3.8,0.2,5.7,0.2c-6.5,0.1-12.9,0.1-19.3-0.2c-4.4-0.3-7.1-3.8-7.1-8.4c0-21.9-0.8-43.8,0.2-65.6
		c1.6-35.5,32.6-64.2,68.1-64.4C192.1,232.1,203.3,232.1,214.5,232.1z"/>
	<path class="st0" d="M114.1,195.7c-23.9,0-43.2-23-43.2-51.3c0.1-27.8,19.7-50.8,43.4-50.8c23.8,0,43.6,23.3,43.5,51.3
		C157.7,173,138.2,195.7,114.1,195.7z"/>
	<path class="st2" d="M159.9,143c0.1,27.6-21.8,50-49.2,50.1c-2.1,0-4.2-0.1-6.3-0.3c24.7-2.9,43.7-24.1,43.6-49.8
		c-0.1-25.4-19.2-46.2-43.7-49.1c1.9-0.2,3.8-0.3,5.7-0.4C137.5,93.5,159.8,115.6,159.9,143z"/>
	<path class="st1" d="M336.1,106.8c0.2,43.8-34.6,79.2-77.9,79.4c-3.4,0-6.7-0.2-9.9-0.5c39.2-4.6,69.3-38.1,69.1-78.9
		C317.1,66.6,286.9,33.6,248,29c3-0.4,6-0.5,9-0.6C300.5,28.2,335.9,63.3,336.1,106.8z"/>
	<path class="st1" d="M392.4,404.2c-55.6-0.1-100.4-44.6-100.3-99.6c0.1-54,45.8-98.7,100.8-98.6c55.3,0.1,101.2,45.3,101,99.5
		C493.7,360.1,448.3,404.3,392.4,404.2z"/>
	<path class="st0" d="M472.5,303.8c0.3,53.3-46,96.5-103.7,96.8c-4.5,0-8.9-0.2-13.2-0.7c52.2-5.6,92.2-46.5,92-96.1
		c-0.3-49.1-40.5-89.2-92.2-94.8c3.9-0.4,7.9-0.7,12-0.7C425.2,208.1,472.2,250.8,472.5,303.8z"/>
	<path class="st3" d="M389.5,411.3c-15.6-0.1-30.3-3.6-44.3-10.2c-2.6-1.3-4-0.8-5.9,1.1c-22,22.1-44,44.2-66.1,66.2
		c-12.8,12.7-31.6,13.4-43.9,1.8c-13.2-12.5-13.3-31.9,0.1-45.5c13.1-13.3,26.4-26.4,39.5-39.6c8.7-8.7,17.3-17.4,26-25.9
		c2.1-2,2.5-3.5,1.2-6.3c-30.4-62.3,5.9-135.5,73.9-148.9c56.4-11.1,112.7,27.5,122.3,83.8c10,58.6-28,112.4-86.3,122
		C400.6,410.7,395,410.8,389.5,411.3z M299.9,306.3c-0.1,49.3,40,89.7,89,89.8c49.8,0.1,90-39.6,90.2-89.1c0.2-49.2-40.2-90-89-89.9
		C340.3,217.2,300,257.1,299.9,306.3z M304.9,370.7c0.3-0.3,0.7-0.7,1-1c-0.3,0.1-0.6,0.1-0.8,0.3c-22.3,22.2-44.5,44.4-66.7,66.8
		c-4.5,4.5-5.3,10.3-3.1,16.2c2.2,6.1,6.9,9.3,13.1,10.2c5.7,0.8,10.4-1.6,14.5-5.6c21.2-21.2,42.4-42.4,63.6-63.7
		c0.7-0.7,1.3-1.5,2-2.2c-0.7,0.6-1.5,1.3-2.2,1.9C319.1,385.9,312,378.3,304.9,370.7z"/>
	<path class="st3" d="M125.5,381.2c-2.1,0-3.7,0-5.3,0c-30,0-60,0-90,0c-14.8,0-24.1-9.3-24.1-23.9c0-16.2,0-32.3,0-48.5
		c0-42.6,30.1-74.7,72.7-76.6c20.3-0.9,40.8-0.1,61.2,0.4c5.4,0.1,10.7,2.3,16.2,3.2c1.7,0.3,4,0,5.4-1
		c15.9-11.6,33.7-17.5,53.3-17.8c14.3-0.2,28.6,0,42.8,0c0.7,0,1.5,0,2.2,0.1c4.5,0.6,7.5,3.7,7.4,7.7c-0.1,4-3.3,7.1-7.9,7.1
		c-12.7,0.1-25.4-0.3-38,0.2c-9.1,0.4-18.4,0.8-27.1,3.2c-30.9,8.4-52.8,36.4-53.5,68.3c-0.6,28-0.2,55.9-0.2,83.9
		c0,6.2,2.6,8.6,8.9,8.6c8.5,0,16.9,0,25.4,0c8.1,0,10.5-2.3,10.5-10.3c0-27.7,0-55.4,0-83c0-1.5-0.1-2.9,0.1-4.4
		c0.4-3.4,2.3-5.7,5.7-6.3c3.7-0.7,6.8,0.5,8.2,4.1c0.7,1.8,0.9,4,0.9,6c0.1,28.1,0,56.2,0,84.4c0,15.4-9.1,24.5-24.3,24.6
		c-9,0-18.1,0.1-27.1,0c-13.6-0.1-22.7-8.9-23.2-22.5C125.4,386.2,125.5,383.8,125.5,381.2z M125.5,366.2c0-2,0-3.6,0-5.1
		c0-17.5,0.1-34.9,0-52.4c-0.1-21.3,6-40.3,19.1-57.1c0.7-0.8,1.1-1.8,1.9-3.1c-3-0.4-5.4-1-7.8-1c-19.7-0.2-39.3-0.9-59-0.3
		c-31.1,1-54.4,21.4-57.8,52.3c-2.2,19.9-0.9,40.1-0.6,60.2c0,2.2,3.4,6,5.5,6.2c7.9,0.7,15.8,0.3,23.9,0.3c0-2.1,0-3.7,0-5.3
		c0-16.9,0-33.8,0-50.7c0-1.3-0.1-2.6,0.1-3.9c0.5-4.1,3.8-7.1,7.6-7.1c4,0,7.2,3.3,7.2,7.7c0.1,18.2,0,36.4,0,54.6
		c0,1.5,0,3.1,0,4.7C85.8,366.2,105.3,366.2,125.5,366.2z"/>
	<path class="st3" d="M270.9,193.1c-47.5,0-85.7-38.1-85.7-85.7c0-47.5,38.3-85.8,85.7-85.8c47.4,0,85.8,38.4,85.7,85.8
		C356.6,154.9,318.4,193.1,270.9,193.1z M270.9,178.2c39.1,0,70.8-31.7,70.8-70.7c0-39-31.7-70.9-70.7-71c-39.3-0.1-71,31.7-71,71
		C200.1,146.7,231.7,178.2,270.9,178.2z"/>
	<path class="st3" d="M107.8,208c-48-0.1-78.7-49.3-57.9-91.1c0.7-1.4,1.5-2.8,2.3-4.2c2.8-4.5,6.7-5.8,10.6-3.6
		c3.8,2.2,4.4,6.4,2.3,11.1c-2.3,5.1-4.8,10.3-5.9,15.8c-6,28.5,16.7,56.5,45.9,57.1c27.7,0.5,49.5-20.3,50.1-47.8
		c0.7-30.4-28.6-54.5-58.3-47.9c-5.9,1.3-9.1,0.2-10.9-3.6c-2.1-4.7,0.5-9.4,6.3-10.7c18.3-4.1,35.3-0.9,50.7,9.9
		c21.6,15.1,31.4,41.5,25.3,66.9c-6.1,25.3-27.3,44.3-53.5,47.9C112.2,208,109.4,207.9,107.8,208z"/>
</g>
</svg>
