<?xml version="1.0" encoding="UTF-8"?>
<svg width="173px" height="42px" viewBox="0 0 173 42" version="1.1" xmlns="http://www.w3.org/2000/svg" xmlns:xlink="http://www.w3.org/1999/xlink">
    <!-- Generator: sketchtool 59 (101010) - https://sketch.com -->
    <title>B417D1BC-8C5B-4D24-80E7-149EB59486A7</title>
    <desc>Created with sketchtool.</desc>
    <defs>
        <linearGradient x1="63.6883007%" y1="95.5219015%" x2="32.6234342%" y2="19.8914136%" id="linearGradient-1">
            <stop stop-color="#9BE46D" offset="0%"></stop>
            <stop stop-color="#24CB4C" offset="100%"></stop>
        </linearGradient>
    </defs>
    <g id="Visual-Design" stroke="none" stroke-width="1" fill="none" fill-rule="evenodd">
        <g id="Home-page" transform="translate(-135.000000, -20.000000)" fill-rule="nonzero">
            <g id="Logo/logo_horizontal_Header" transform="translate(135.000000, 20.000000)">
                <g>
                    <path d="M5.62871785,34.2702122 C7.57162725,34.2702122 9.14666651,35.8438836 9.14666651,37.7851057 C9.14666651,39.7263278 7.57162725,41.2999993 5.62871785,41.2999993 C3.68580846,41.2999993 2.11076919,39.7263278 2.11076919,37.7851057 C2.11076919,35.8438836 3.68580846,34.2702122 5.62871785,34.2702122 Z M22.8666663,34.2702122 C24.8095757,34.2702122 26.3846149,35.8438836 26.3846149,37.7851057 C26.3846149,39.7263278 24.8095757,41.2999993 22.8666663,41.2999993 C20.9237569,41.2999993 19.3487176,39.7263278 19.3487176,37.7851057 C19.3487176,35.8438836 20.9237569,34.2702122 22.8666663,34.2702122 Z M32.1892302,0 C33.3549759,0 34.2999994,0.944202869 34.2999994,2.10893613 C34.2999994,3.2736694 33.3549759,4.21787227 32.1892302,4.21787227 L32.1892302,4.21787227 L30.6061533,4.21787227 C29.4404077,4.21787227 28.4953841,5.16207514 28.4953841,6.3268084 L28.4953841,6.3268084 L28.4953841,21.7923401 C28.4953841,22.0167111 28.4603151,22.2328984 28.3953549,22.4357288 C27.5549185,29.4974674 21.541323,34.9731909 14.2476921,34.9731909 C6.37890902,34.9731909 0,28.5998215 0,20.737872 C0,12.8759224 6.37890902,6.50255308 14.2476921,6.50255308 C18.1576369,6.50255308 21.6997276,8.07615618 24.274156,10.6240752 L24.2738457,6.3268084 C24.2738457,2.83260861 27.1089164,0 30.6061533,0 L30.6061533,0 Z M14.2476921,10.7204253 C8.71040029,10.7204253 4.22153839,15.205389 4.22153839,20.737872 C4.22153839,26.270355 8.71040029,30.7553186 14.2476921,30.7553186 C19.7849838,30.7553186 24.2738457,26.270355 24.2738457,20.737872 C24.2738457,15.205389 19.7849838,10.7204253 14.2476921,10.7204253 Z M14.4235895,13.8780249 C18.1119115,13.8780249 21.1018873,16.8705995 21.1018873,20.5621273 C21.1018873,21.533582 20.3150515,22.3211016 19.3444405,22.3211016 L19.3444405,22.3211016 L11.7943018,22.3211016 L11.8524406,22.4049386 C12.4270934,23.2058562 13.3656126,23.7282811 14.4235895,23.7282811 C15.4187224,23.7282811 16.2962831,23.5087002 17.0849915,23.0701481 L17.0849915,23.0701481 L17.1561921,23.0326284 C17.9924374,22.615785 19.0164912,22.9279196 19.4747679,23.7535348 C19.9461383,24.602739 19.6404414,25.6736084 18.7919747,26.1453885 C17.4717469,26.8794859 16.0060452,27.2462298 14.4235895,27.2462298 C10.7389318,27.2462298 7.74529174,24.2521573 7.74529174,20.5621273 C7.74529174,16.8705995 10.7352675,13.8780249 14.4235895,13.8780249 Z M14.4235895,17.3959735 C13.3267965,17.3959735 12.3603722,17.9546338 11.7928847,18.803153 L11.7928847,18.803153 L17.0542943,18.803153 C16.4868068,17.9546338 15.5203825,17.3959735 14.4235895,17.3959735 Z" id="Combined-Shape" fill="url(#linearGradient-1)"></path>
                    <path d="M46.4379992,14.5320001 L56.286999,14.5320001 L56.286999,16.8420001 L49.0839992,16.8420001 L49.0839992,20.622 L55.908999,20.622 L55.908999,22.848 L49.0839992,22.848 L49.0839992,27.0479999 L56.664999,27.0479999 L56.664999,29.3999999 L46.4379992,29.3999999 L46.4379992,14.5320001 Z M59.121999,19.32 L61.515999,19.32 L61.515999,20.937 L61.557999,20.937 C61.7820001,20.4329975 62.1704962,19.9885019 62.7234989,19.6035 C63.2765017,19.2184981 63.9309951,19.026 64.6869989,19.026 C65.3450022,19.026 65.9084965,19.1414989 66.3774989,19.3725 C66.8465012,19.6035012 67.2314974,19.9079981 67.5324988,20.286 C67.8335003,20.6640019 68.0539981,21.0979975 68.1939988,21.588 C68.3339995,22.0780024 68.4039988,22.5819974 68.4039988,23.1 L68.4039988,29.3999999 L65.8839989,29.3999999 L65.8839989,23.814 C65.8839989,23.5199985 65.8629991,23.2120016 65.8209989,22.89 C65.7789987,22.5679984 65.6879996,22.2775013 65.5479989,22.0185 C65.4079982,21.7594987 65.2155001,21.5460008 64.9704989,21.378 C64.7254977,21.2099992 64.4000009,21.126 63.9939989,21.126 C63.5879969,21.126 63.2380004,21.2064992 62.9439989,21.3675 C62.6499975,21.5285008 62.4084999,21.7349987 62.2194989,21.987 C62.030498,22.2390012 61.8869994,22.5294983 61.7889989,22.8585 C61.6909985,23.1875016 61.641999,23.5199983 61.641999,23.856 L61.641999,29.3999999 L59.121999,29.3999999 L59.121999,19.32 Z M78.2319987,22.113 C78.0359977,21.8329986 77.7420006,21.5985009 77.3499987,21.4095 C76.9579967,21.2204991 76.5590007,21.126 76.1529987,21.126 C75.6909964,21.126 75.2850005,21.2204991 74.9349987,21.4095 C74.584997,21.5985009 74.2944999,21.8469984 74.0634987,22.155 C73.8324976,22.4630015 73.6609993,22.809498 73.5489987,23.1945 C73.4369982,23.5795019 73.3809988,23.967998 73.3809988,24.3599999 C73.3809988,24.7520019 73.4404982,25.140498 73.5594987,25.5254999 C73.6784993,25.9105018 73.8569976,26.2569984 74.0949987,26.5649999 C74.3329999,26.8730014 74.6304969,27.121499 74.9874987,27.3104999 C75.3445005,27.4995008 75.7609963,27.5939999 76.2369987,27.5939999 C76.6290007,27.5939999 77.0209967,27.5170007 77.4129987,27.3629999 C77.8050006,27.2089991 78.1199975,26.9850014 78.3579987,26.6909999 L79.9329986,28.2869999 C79.5129965,28.7350021 78.9775019,29.0814986 78.3264987,29.3264999 C77.6754954,29.5715011 76.9720025,29.6939999 76.2159987,29.6939999 C75.473995,29.6939999 74.7705021,29.575001 74.1054987,29.3369999 C73.4404954,29.0989987 72.8595012,28.7490022 72.3624988,28.2869999 C71.8654963,27.8249976 71.4735002,27.2650032 71.1864988,26.6069999 C70.8994974,25.9489966 70.7559988,25.2000041 70.7559988,24.3599999 C70.7559988,23.5479959 70.8994974,22.8130033 71.1864988,22.155 C71.4735002,21.4969967 71.8619963,20.9370023 72.3519988,20.475 C72.8420012,20.0129977 73.4124955,19.6560013 74.0634987,19.404 C74.714502,19.1519988 75.410995,19.026 76.1529987,19.026 C76.8950024,19.026 77.6124952,19.1659986 78.3054987,19.446 C78.9985021,19.7260014 79.5479966,20.1109976 79.9539986,20.601 L78.2319987,22.113 Z M87.8499985,28.1189999 L87.7869985,28.1189999 C87.5349972,28.5670021 87.1290013,28.9344984 86.5689985,29.2214999 C86.0089957,29.5085013 85.3720021,29.6519999 84.6579986,29.6519999 C84.2519965,29.6519999 83.8285008,29.5995004 83.3874986,29.4944999 C82.9464964,29.3894993 82.5405004,29.2145011 82.1694986,28.9694999 C81.7984968,28.7244986 81.4904998,28.4025019 81.2454986,28.0034999 C81.0004974,27.6044979 80.8779986,27.1110028 80.8779986,26.5229999 C80.8779986,25.7669961 81.0914965,25.1650022 81.5184986,24.7169999 C81.9455007,24.2689977 82.4949952,23.9260011 83.1669986,23.688 C83.8390019,23.4499988 84.5844945,23.2925003 85.4034985,23.2155 C86.2225026,23.1384996 87.0239946,23.1 87.8079985,23.1 L87.8079985,22.848 C87.8079985,22.2179968 87.5805008,21.7525015 87.1254985,21.4515 C86.6704962,21.1504985 86.1280017,21 85.4979985,21 C84.9659959,21 84.455001,21.1119989 83.9649986,21.336 C83.4749961,21.5600011 83.0690002,21.8329984 82.7469986,22.155 L81.4449986,20.622 C82.0190015,20.0899974 82.6804948,19.6910014 83.4294986,19.425 C84.1785023,19.1589987 84.9379947,19.026 85.7079985,19.026 C86.604003,19.026 87.3424956,19.1519988 87.9234985,19.404 C88.5045014,19.6560013 88.9629968,19.984998 89.2989985,20.391 C89.6350002,20.797002 89.8694978,21.2519975 90.0024985,21.756 C90.1354991,22.2600025 90.2019985,22.7639974 90.2019985,23.268 L90.2019985,29.3999999 L87.8499985,29.3999999 L87.8499985,28.1189999 Z M87.8079985,24.8009999 L87.2409985,24.8009999 C86.8349965,24.8009999 86.4080008,24.8184998 85.9599985,24.8534999 C85.5119963,24.8885001 85.0990004,24.9654993 84.7209986,25.0844999 C84.3429967,25.2035005 84.0279998,25.3714988 83.7759986,25.5884999 C83.5239973,25.805501 83.3979986,26.102998 83.3979986,26.4809999 C83.3979986,26.7190011 83.4504981,26.9184991 83.5554986,27.0794999 C83.6604991,27.2405007 83.7969977,27.3699994 83.9649986,27.4679999 C84.1329994,27.5660004 84.3219975,27.6359997 84.5319986,27.6779999 C84.7419996,27.7200001 84.9519975,27.7409999 85.1619985,27.7409999 C86.0300029,27.7409999 86.6879963,27.5100022 87.1359985,27.0479999 C87.5840007,26.5859976 87.8079985,25.9560039 87.8079985,25.1579999 L87.8079985,24.8009999 Z M98.6649983,22.008 C98.4409972,21.7139985 98.1330003,21.4585011 97.7409983,21.2415 C97.3489964,21.0244989 96.9220007,20.916 96.4599984,20.916 C96.0539963,20.916 95.6830001,20.9999992 95.3469984,21.168 C95.0109967,21.3360008 94.8429984,21.615998 94.8429984,22.008 C94.8429984,22.4000019 95.0284965,22.6764992 95.3994984,22.8375 C95.724125,22.9783757 96.1800507,23.1219292 96.7672865,23.2681638 L97.0269983,23.331 C97.4050002,23.4150004 97.7864964,23.5269993 98.1714983,23.667 C98.5565002,23.8070007 98.9064967,23.9924988 99.2214983,24.2234999 C99.5364999,24.4545011 99.7919973,24.7414982 99.9879983,25.0844999 C100.183999,25.4275016 100.281998,25.8439975 100.281998,26.3339999 C100.281998,26.950003 100.166499,27.4714978 99.9354983,27.8984999 C99.7044971,28.325502 99.3965002,28.6719985 99.0114983,28.9379999 C98.6264964,29.2040012 98.1785009,29.3964993 97.6674983,29.5154999 C97.1564958,29.6345004 96.6280011,29.6939999 96.0819984,29.6939999 C95.2979945,29.6939999 94.5350021,29.5505013 93.7929984,29.2634999 C93.0509947,28.9764984 92.4350009,28.5670025 91.9449984,28.0349999 L93.6039984,26.4809999 C93.8839998,26.8450017 94.2479962,27.1459987 94.6959984,27.3839999 C95.1440006,27.6220011 95.6409956,27.7409999 96.1869984,27.7409999 C96.3689993,27.7409999 96.5544974,27.7200001 96.7434984,27.6779999 C96.9324993,27.6359997 97.1074975,27.5695003 97.2684983,27.4784999 C97.4294991,27.3874994 97.5589978,27.2650007 97.6569983,27.1109999 C97.7549988,26.9569991 97.8039983,26.768001 97.8039983,26.5439999 C97.8039983,26.1239978 97.6115003,25.8230008 97.2264983,25.6409999 C96.8896217,25.4817491 96.4053681,25.3225004 95.773726,25.1632502 L95.4939984,25.0949999 C95.1159965,25.0109995 94.7485002,24.9025006 94.3914984,24.7694999 C94.0344966,24.6364993 93.7159998,24.461501 93.4359984,24.2444999 C93.155997,24.0274989 92.9319993,23.7580016 92.7639984,23.436 C92.5959976,23.1139984 92.5119984,22.7150024 92.5119984,22.239 C92.5119984,21.6789972 92.6274973,21.196002 92.8584984,20.79 C93.0894996,20.383998 93.3939965,20.0515013 93.7719984,19.7925 C94.1500003,19.5334987 94.576996,19.3410007 95.0529984,19.215 C95.5290008,19.0889994 96.0189958,19.026 96.5229984,19.026 C97.251002,19.026 97.9614949,19.1519988 98.6544983,19.404 C99.3475018,19.6560013 99.8969963,20.0409974 100.302998,20.559 L98.6649983,22.008 Z M108.072998,19.026 C108.731001,19.026 109.294496,19.1414989 109.763498,19.3725 C110.2325,19.6035012 110.617497,19.9079981 110.918498,20.286 C111.2195,20.6640019 111.439997,21.0979975 111.579998,21.588 C111.719999,22.0780024 111.789998,22.5819974 111.789998,23.1 L111.789998,29.3999999 L109.269998,29.3999999 L109.269998,23.856 C109.269998,23.5619985 109.248998,23.2575015 109.206998,22.9425 C109.164998,22.6274984 109.077499,22.3405013 108.944498,22.0815 C108.811497,21.8224987 108.622499,21.6090008 108.377498,21.441 C108.132497,21.2729992 107.807,21.189 107.400998,21.189 C106.994996,21.189 106.645,21.2659992 106.350998,21.42 C106.056997,21.5740008 105.811999,21.7804987 105.615998,22.0395 C105.419997,22.2985013 105.272999,22.5889984 105.174998,22.911 C105.076998,23.2330016 105.027998,23.5619983 105.027998,23.898 L105.027998,29.3999999 L102.507998,29.3999999 L102.507998,13.5240001 L105.027998,13.5240001 L105.027998,20.727 L105.069998,20.727 C105.167999,20.516999 105.311497,20.310501 105.500498,20.1075 C105.689499,19.904499 105.909997,19.7225008 106.161998,19.5615 C106.413999,19.4004992 106.700997,19.2710005 107.022998,19.173 C107.345,19.0749995 107.694996,19.026 108.072998,19.026 Z M114.141998,21.924 C114.141998,20.7339941 114.341496,19.6595048 114.740498,18.7005 C115.1395,17.7414953 115.692494,16.9260034 116.399498,16.2540001 C117.106502,15.5819967 117.946493,15.0640019 118.919498,14.7000001 C119.892503,14.3359983 120.952992,14.1540001 122.100998,14.1540001 C123.263004,14.1540001 124.333993,14.3359983 125.313998,14.7000001 C126.294003,15.0640019 127.140994,15.5819967 127.854998,16.2540001 C128.569001,16.9260034 129.125496,17.7414953 129.524498,18.7005 C129.9235,19.6595048 130.122998,20.7339941 130.122998,21.924 C130.122998,23.0860058 129.9235,24.1464952 129.524498,25.1054999 C129.125496,26.0645047 128.569001,26.8904964 127.854998,27.5834999 C127.140994,28.2765033 126.294003,28.8154979 125.313998,29.2004999 C124.333993,29.5855018 123.263004,29.7779999 122.100998,29.7779999 C120.952992,29.7779999 119.892503,29.5855018 118.919498,29.2004999 C117.946493,28.8154979 117.106502,28.2765033 116.399498,27.5834999 C115.692494,26.8904964 115.1395,26.0645047 114.740498,25.1054999 C114.341496,24.1464952 114.141998,23.0860058 114.141998,21.924 Z M117.018998,21.924 C117.018998,22.722004 117.141497,23.4534966 117.386498,24.1184999 C117.631499,24.7835033 117.981496,25.3609975 118.436498,25.8509999 C118.8915,26.3410024 119.430495,26.7224985 120.053498,26.9954999 C120.676501,27.2685013 121.365994,27.4049999 122.121998,27.4049999 C122.878002,27.4049999 123.570995,27.2685013 124.200998,26.9954999 C124.831001,26.7224985 125.373496,26.3410024 125.828498,25.8509999 C126.2835,25.3609975 126.633497,24.7835033 126.878498,24.1184999 C127.123499,23.4534966 127.245998,22.722004 127.245998,21.924 C127.245998,21.1539961 127.123499,20.4400033 126.878498,19.782 C126.633497,19.1239967 126.287,18.5500025 125.838998,18.0600001 C125.390996,17.5699976 124.852001,17.1850015 124.221998,16.9050001 C123.591995,16.6249987 122.892002,16.4850001 122.121998,16.4850001 C121.351994,16.4850001 120.655501,16.6249987 120.032498,16.9050001 C119.409495,17.1850015 118.874,17.5699976 118.425998,18.0600001 C117.977996,18.5500025 117.631499,19.1239967 117.386498,19.782 C117.141497,20.4400033 117.018998,21.1539961 117.018998,21.924 Z M132.957998,21.336 L131.046998,21.336 L131.046998,19.32 L132.957998,19.32 L132.957998,17.8290001 C132.957998,17.2269971 133.024497,16.6495028 133.157498,16.0965001 C133.290498,15.5434973 133.514496,15.0570022 133.829498,14.6370001 C134.144499,14.216998 134.560995,13.8845013 135.078998,13.6395001 C135.597,13.3944989 136.247994,13.2720001 137.031998,13.2720001 C137.311999,13.2720001 137.546497,13.2825 137.735498,13.3035001 C137.924499,13.3245002 138.116997,13.3629999 138.312998,13.4190001 L138.144998,15.5610001 C138.004997,15.5189999 137.854498,15.4840002 137.693498,15.4560001 C137.532497,15.428 137.360999,15.4140001 137.178998,15.4140001 C136.814996,15.4140001 136.520999,15.4839994 136.296998,15.6240001 C136.072997,15.7640008 135.901498,15.945999 135.782498,16.1700001 C135.663497,16.3940012 135.582998,16.6389987 135.540998,16.9050001 C135.498997,17.1710014 135.477998,17.4299988 135.477998,17.6820001 L135.477998,19.32 L137.808998,19.32 L137.808998,21.336 L135.477998,21.336 L135.477998,29.3999999 L132.957998,29.3999999 L132.957998,21.336 Z M139.320998,21.336 L137.409998,21.336 L137.409998,19.32 L139.320998,19.32 L139.320998,17.8290001 C139.320998,17.2269971 139.387497,16.6495028 139.520498,16.0965001 C139.653498,15.5434973 139.877496,15.0570022 140.192498,14.6370001 C140.507499,14.216998 140.923995,13.8845013 141.441998,13.6395001 C141.96,13.3944989 142.610994,13.2720001 143.394998,13.2720001 C143.674999,13.2720001 143.909497,13.2825 144.098498,13.3035001 C144.287498,13.3245002 144.479997,13.3629999 144.675998,13.4190001 L144.507998,15.5610001 C144.367997,15.5189999 144.217498,15.4840002 144.056498,15.4560001 C143.895497,15.428 143.723998,15.4140001 143.541998,15.4140001 C143.177996,15.4140001 142.883999,15.4839994 142.659998,15.6240001 C142.435996,15.7640008 142.264498,15.945999 142.145498,16.1700001 C142.026497,16.3940012 141.945998,16.6389987 141.903998,16.9050001 C141.861997,17.1710014 141.840998,17.4299988 141.840998,17.6820001 L141.840998,19.32 L144.171998,19.32 L144.171998,21.336 L141.840998,21.336 L141.840998,29.3999999 L139.320998,29.3999999 L139.320998,21.336 Z M152.823997,23.352 C152.823997,23.0299984 152.778498,22.7220014 152.687497,22.428 C152.596497,22.1339985 152.452998,21.8750011 152.256997,21.651 C152.060996,21.4269989 151.812499,21.2485007 151.511497,21.1155 C151.210496,20.9824993 150.856999,20.916 150.450997,20.916 C149.694994,20.916 149.0545,21.1434977 148.529497,21.5985 C148.004495,22.0535023 147.713998,22.6379964 147.657997,23.352 L152.823997,23.352 Z M155.343997,24.4859999 L155.343997,24.8219999 C155.343997,24.9340005 155.336997,25.0459994 155.322997,25.1579999 L147.657997,25.1579999 C147.685998,25.5220017 147.780497,25.8544984 147.941497,26.1554999 C148.102498,26.4565014 148.315996,26.7154988 148.581997,26.9324999 C148.847999,27.149501 149.148996,27.3209993 149.484997,27.4469999 C149.820999,27.5730005 150.170996,27.6359999 150.534997,27.6359999 C151.165001,27.6359999 151.696995,27.520501 152.130997,27.2894999 C152.565,27.0584987 152.921996,26.7400019 153.201997,26.3339999 L154.881997,27.6779999 C153.887992,29.0220066 152.446007,29.6939999 150.555997,29.6939999 C149.771994,29.6939999 149.051001,29.5715011 148.392997,29.3264999 C147.734994,29.0814986 147.1645,28.7350021 146.681498,28.2869999 C146.198495,27.8389976 145.820499,27.2895031 145.547498,26.6384999 C145.274496,25.9874967 145.137998,25.2490041 145.137998,24.4229999 C145.137998,23.6109959 145.274496,22.8725033 145.547498,22.2075 C145.820499,21.5424967 146.194995,20.9755023 146.670998,20.5065 C147.147,20.0374977 147.710494,19.6735013 148.361497,19.4145 C149.012501,19.1554987 149.715994,19.026 150.471997,19.026 C151.172001,19.026 151.819494,19.1414989 152.414497,19.3725 C153.0095,19.6035012 153.523995,19.9464977 153.957997,20.4015 C154.392,20.8565023 154.731496,21.4234966 154.976497,22.1025 C155.221499,22.7815034 155.343997,23.5759954 155.343997,24.4859999 Z M157.779997,19.32 L160.194997,19.32 L160.194997,21 L160.236997,21 C160.516999,20.4119971 160.908995,19.9360018 161.412997,19.572 C161.917,19.2079982 162.504994,19.026 163.176997,19.026 C163.274998,19.026 163.379997,19.0295 163.491997,19.0365 C163.603998,19.0435001 163.701997,19.0609999 163.785997,19.089 L163.785997,21.399 C163.617996,21.3569998 163.474498,21.3290001 163.355497,21.315 C163.236497,21.3009999 163.120998,21.294 163.008997,21.294 C162.434994,21.294 161.972999,21.3989989 161.622997,21.609 C161.272996,21.819001 160.999998,22.0709985 160.803997,22.365 C160.607996,22.6590014 160.474998,22.9599984 160.404997,23.268 C160.334997,23.5760015 160.299997,23.820999 160.299997,24.0029999 L160.299997,29.3999999 L157.779997,29.3999999 L157.779997,19.32 Z M170.946997,22.008 C170.722996,21.7139985 170.414999,21.4585011 170.022997,21.2415 C169.630995,21.0244989 169.203999,20.916 168.741997,20.916 C168.335995,20.916 167.964999,20.9999992 167.628997,21.168 C167.292995,21.3360008 167.124997,21.615998 167.124997,22.008 C167.124997,22.4000019 167.310495,22.6764992 167.681497,22.8375 C168.006124,22.9783757 168.462049,23.1219292 169.049285,23.2681638 L169.308997,23.331 C169.686999,23.4150004 170.068495,23.5269993 170.453497,23.667 C170.838499,23.8070007 171.188496,23.9924988 171.503497,24.2234999 C171.818499,24.4545011 172.073996,24.7414982 172.269997,25.0844999 C172.465998,25.4275016 172.563997,25.8439975 172.563997,26.3339999 C172.563997,26.950003 172.448498,27.4714978 172.217497,27.8984999 C171.986496,28.325502 171.678499,28.6719985 171.293497,28.9379999 C170.908495,29.2040012 170.4605,29.3964993 169.949497,29.5154999 C169.438495,29.6345004 168.91,29.6939999 168.363997,29.6939999 C167.579993,29.6939999 166.817001,29.5505013 166.074997,29.2634999 C165.332993,28.9764984 164.717,28.5670025 164.226997,28.0349999 L165.885997,26.4809999 C166.165999,26.8450017 166.529995,27.1459987 166.977997,27.3839999 C167.425999,27.6220011 167.922994,27.7409999 168.468997,27.7409999 C168.650998,27.7409999 168.836496,27.7200001 169.025497,27.6779999 C169.214498,27.6359997 169.389496,27.5695003 169.550497,27.4784999 C169.711498,27.3874994 169.840997,27.2650007 169.938997,27.1109999 C170.036998,26.9569991 170.085997,26.768001 170.085997,26.5439999 C170.085997,26.1239978 169.893499,25.8230008 169.508497,25.6409999 C169.17162,25.4817491 168.687367,25.3225004 168.055725,25.1632502 L167.775997,25.0949999 C167.397995,25.0109995 167.030499,24.9025006 166.673497,24.7694999 C166.316495,24.6364993 165.997999,24.461501 165.717997,24.2444999 C165.437996,24.0274989 165.213998,23.7580016 165.045997,23.436 C164.877996,23.1139984 164.793997,22.7150024 164.793997,22.239 C164.793997,21.6789972 164.909496,21.196002 165.140497,20.79 C165.371498,20.383998 165.675995,20.0515013 166.053997,19.7925 C166.431999,19.5334987 166.858995,19.3410007 167.334997,19.215 C167.811,19.0889994 168.300995,19.026 168.804997,19.026 C169.533001,19.026 170.243494,19.1519988 170.936497,19.404 C171.629501,19.6560013 172.178995,20.0409974 172.584997,20.559 L170.946997,22.008 Z" id="EncashOffers" fill="#121344"></path>
                </g>
            </g>
        </g>
    </g>
</svg>